<svg xmlns="http://www.w3.org/2000/svg" xmlns:xlink="http://www.w3.org/1999/xlink" width="64" zoomAndPan="magnify" viewBox="0 0 48 48" height="64" preserveAspectRatio="xMidYMid meet" version="1.2"><defs><clipPath id="c278bbb417"><path d="M 19 2.953125 L 39 2.953125 L 39 39.6875 L 19 39.6875 Z M 19 2.953125 "/></clipPath><clipPath id="e748ce656f"><path d="M 24.167969 7 L 44.371094 7 L 44.371094 36.347656 L 24.167969 36.347656 Z M 24.167969 7 "/></clipPath><clipPath id="38b0931de7"><path d="M 0.488281 31.71875 L 19 31.71875 L 19 47.019531 L 0.488281 47.019531 Z M 0.488281 31.71875 "/></clipPath></defs><g id="530b78d5b3"><g clip-rule="nonzero" clip-path="url(#c278bbb417)"><path style=" stroke:none;fill-rule:nonzero;fill:#27c0ef;fill-opacity:1;" d="M 38.597656 15.347656 L 30.832031 15.347656 L 37.09375 2.953125 L 27.078125 2.953125 L 19.507812 21.546875 L 27.085938 21.546875 L 20.683594 39.6875 L 38.597656 15.347656 "/></g><g clip-rule="nonzero" clip-path="url(#e748ce656f)"><path style=" stroke:none;fill-rule:nonzero;fill:#27c0ef;fill-opacity:1;" d="M 24.746094 35.734375 L 25.9375 34.117188 C 33.3125 35.722656 40.59375 31.042969 42.195312 23.667969 C 43.5 17.675781 40.65625 11.546875 35.238281 8.683594 L 36.074219 7.023438 C 43.660156 11.015625 46.574219 20.40625 42.578125 27.992188 C 39.1875 34.4375 31.769531 37.65625 24.746094 35.734375 "/></g><path style=" stroke:none;fill-rule:nonzero;fill:#27c0ef;fill-opacity:1;" d="M 24.941406 5.734375 L 24.035156 7.96875 C 16.96875 10.621094 13.394531 18.503906 16.046875 25.570312 C 17.1875 28.59375 19.351562 31.113281 22.167969 32.6875 L 21.542969 34.460938 C 13.976562 30.429688 11.109375 21.027344 15.140625 13.460938 C 17.183594 9.628906 20.738281 6.828125 24.941406 5.734375 "/><g clip-rule="nonzero" clip-path="url(#38b0931de7)"><path style=" stroke:none;fill-rule:nonzero;fill:#27c0ef;fill-opacity:1;" d="M 15.210938 32.160156 C 14.910156 31.78125 14.363281 31.71875 13.984375 32.019531 L 11.199219 34.226562 L 9.839844 32.511719 C 9.742188 32.390625 9.546875 32.367188 9.425781 32.464844 L 6.773438 34.570312 C 4.519531 36.355469 3.890625 39.417969 5.097656 41.902344 L 0.710938 45.382812 C 0.144531 45.832031 0.046875 46.652344 0.5 47.21875 C 0.949219 47.789062 1.769531 47.882812 2.335938 47.433594 L 6.726562 43.953125 C 8.867188 45.691406 11.992188 45.777344 14.246094 43.988281 L 16.898438 41.886719 C 17.019531 41.789062 17.042969 41.59375 16.945312 41.476562 L 15.585938 39.757812 L 18.371094 37.550781 C 18.75 37.25 18.8125 36.703125 18.511719 36.324219 C 18.210938 35.945312 17.664062 35.878906 17.285156 36.179688 L 14.5 38.390625 L 12.285156 35.597656 L 15.070312 33.386719 C 15.449219 33.085938 15.511719 32.539062 15.210938 32.160156 Z M 15.210938 32.160156 "/></g></g></svg>